<svg xmlns="http://www.w3.org/2000/svg" width="720" height="217"><path fill="#1991f4" d="M102 5a95 95 0 0 1 5.805 3.324l1.672 1.024c1.803 1.106 3.601 2.223 5.398 3.34l3.788 2.327a3764 3764 0 0 1 7.681 4.731c5.141 3.173 10.305 6.306 15.468 9.442q2.8 1.704 5.598 3.41 5.727 3.487 11.461 6.961c9.367 5.678 18.717 11.383 28.004 17.191l2.452 1.52 2.228 1.402 1.952 1.222C195 62 195 62 196 64c.119 2.75.178 5.475.193 8.226l.025 2.577q.036 4.233.055 8.467l.017 2.917q.039 7.644.06 15.287c.017 5.266.062 10.532.112 15.798.034 4.046.046 8.093.051 12.139q.01 2.913.046 5.824c.032 2.718.032 5.433.024 8.151l.05 2.43c-.045 4.086-.419 5.922-3.038 9.13-2.22 1.757-4.345 3.329-6.79 4.745l-2.389 1.404-2.541 1.467a8593.864 8593.864 0 0 0-8.185 4.83c-4.088 2.444-8.11 4.987-12.128 7.546a2006 2006 0 0 1-22.343 13.976 3560 3560 0 0 0-24.138 15.062q-2.8 1.755-5.611 3.493c-1.525.945-3.04 1.904-4.541 2.886-4.289 2.702-4.289 2.702-7.28 2.437-3.088-.923-5.422-2.259-8.157-3.968l-3.209-1.99-3.408-2.146-3.541-2.206a3039 3039 0 0 1-22.069-13.901C50.549 184.323 43.777 180.159 37 176c-16.38-10.067-16.38-10.067-23.875-14.75l-2.34-1.445-2.152-1.352-1.847-1.151C4.464 155.609 2.797 154.288 1 152a56.6 56.6 0 0 1-.533-8.453l-.027-2.578a765 765 0 0 1-.006-8.434l-.019-5.866q-.015-6.147.009-12.294c.017-5.25-.007-10.5-.042-15.75C.36 94.587.362 90.549.37 86.511q.002-2.904-.021-5.807c-.017-2.708-.003-5.414.02-8.122l-.036-2.42c.07-4.079.462-5.912 3.082-9.11 2.14-1.699 4.175-3.235 6.534-4.603l2.278-1.34 2.461-1.421q2.71-1.596 5.417-3.196l2.904-1.712c5.201-3.095 10.343-6.285 15.491-9.468C96.581 3.475 96.581 3.475 102 5m2 16c-.209 9.023-.369 18.045-.466 27.07-.047 4.191-.111 8.38-.213 12.57a655 655 0 0 0-.175 12.138 216 216 0 0 1-.098 4.624c-.365 12.037-.365 12.037 2.875 15.878 3.518 2.438 6.907 3.814 11.077 4.72v3l-2.25.875C112 103 112 103 110 104.188c-2.704 1.098-4.245.66-7-.188l-3-2c-3.581.337-6.093 1.425-9.098 3.344l-2.383 1.501-2.581 1.655a4887 4887 0 0 1-5.68 3.574l-3.066 1.931c-5.008 3.13-10.061 6.185-15.115 9.241C48.004 131.755 33.994 140.362 20 149c1.496 3.957 3.639 5.33 7.215 7.469l3.239 1.961 3.484 2.07q1.79 1.079 3.577 2.162 2.7 1.636 5.402 3.264a706 706 0 0 1 14.708 9.136l4.473 2.833 8.011 5.075q4.974 3.146 9.953 6.28l3.196 2.028 2.965 1.863 2.648 1.672C91 196 91 196 93 196c.279-8.988.492-17.975.622-26.966.062-4.176.147-8.349.283-12.523.131-4.034.203-8.064.234-12.099q.033-2.302.13-4.602c.195-4.795.177-9.177-1.269-13.81-3.609-3.593-7.508-5.689-12-8l-1-2 2.125-.812c3.04-1.256 5.948-2.69 8.875-4.188l2.75 2.062C97 115 97 115 98.951 114.763c2.202-.82 4.068-1.81 6.076-3.029l2.367-1.427 2.544-1.557 2.674-1.621c8.94-5.434 17.832-10.946 26.716-16.47q4.082-2.533 8.172-5.054c7.938-4.896 15.874-9.796 23.75-14.793l3.328-2.105C177 67 177 67 178 65l-1.882-1.123c-12.166-7.264-24.303-14.571-36.368-22.002l-3.242-1.996q-7.888-4.863-15.742-9.777l-2.953-1.844a1576 1576 0 0 1-5.494-3.45l-2.444-1.527-2.133-1.342C106 21 106 21 104 21m-20.605 4.5-2.691 1.665L77.812 29l-3.046 1.894q-3.227 2.007-6.446 4.027c-5.483 3.433-10.997 6.816-16.508 10.204l-3.269 2.016C38.744 53.176 28.887 59.112 19 65c4.282 4.841 9.228 7.7 14.812 10.875 9.678 5.594 19.17 11.439 28.594 17.451l2.922 1.85 2.591 1.653C70 98 70 98 72 98v2l-2.188.812C67 102 67 102 64.5 103.75c-2.5 1.25-2.5 1.25-4.839.519-2.708-1.291-5.194-2.723-7.731-4.324l-2.941-1.847-3.114-1.973-3.201-2.014A4954 4954 0 0 1 27.23 84.34l-2.653-1.682a1970 1970 0 0 1-4.951-3.152l-2.216-1.408-1.933-1.234C14 76 14 76 13 76v64c13.497-7.873 13.497-7.873 18.312-10.805l3.278-1.992 3.41-2.078 3.627-2.207 5.637-3.429q6.694-4.073 13.396-8.13l5.601-3.393 3.541-2.143C90.993 93.007 90.993 93.007 93 91c.094-2.117.117-4.237.114-6.356v-2.01c-.001-2.202-.009-4.404-.016-6.607l-.005-4.569q-.006-6.025-.024-12.049c-.011-4.095-.015-8.191-.02-12.286Q93.032 35.061 93 23c-4.079-.111-6.124.314-9.605 2.5m96.195 52.598-2.211 1.405-2.441 1.559-5.25 3.333-2.817 1.787c-15.666 9.919-31.445 19.656-47.246 29.357A1689 1689 0 0 0 106 124l1 2c.092 2.094.118 4.19.114 6.286v1.951c-.001 2.132-.009 4.264-.016 6.396l-.005 4.43q-.006 5.835-.024 11.669c-.011 3.969-.015 7.937-.02 11.905q-.017 11.68-.049 23.363c3.657.081 5.656-.023 8.73-2.062l2.143-1.391 2.315-1.547q2.55-1.659 5.105-3.312l2.775-1.805c5.259-3.377 10.6-6.622 15.932-9.883 8.022-4.924 16.032-9.864 24-14.875l2.391-1.496 2.171-1.371 1.879-1.183C176 152 176 152 178 150c-11.301-7.142-22.712-14.1-34.149-21.021a3646 3646 0 0 1-6.828-4.142 1228 1228 0 0 0-5.609-3.389c-5.301-3.223-5.301-3.223-6.414-5.448l2.125-.812C130 114 130 114 132.834 112.254 136 111 136 111 138.735 111.922l2.8 1.828 3.174 2.018q1.677 1.115 3.353 2.232 1.726 1.112 3.457 2.217a897 897 0 0 1 7.036 4.549c5.115 3.331 10.313 6.529 15.507 9.734l2.702 1.688 2.459 1.531 2.148 1.342C183 140 183 140 184 140V76c-1.73 0-2.981 1.185-4.41 2.098M105 127v68l2-1-1-67z"/><path fill="currentColor" d="M262 69c14 0 14 0 18.188 3.625A196 196 0 0 1 284 78a347 347 0 0 0 3.808 4.83 565 565 0 0 1 4.176 5.326c4.752 6.087 9.656 12.051 14.543 18.03 1.836 2.262 3.653 4.539 5.473 6.814l1-44h17v77c-12 0-12 0-17-3a101 101 0 0 1-5-6.188q-1.447-1.893-2.898-3.785l-1.527-1.996c-3.154-4.067-6.443-8.028-9.72-11.997-4.821-5.885-9.273-11.924-13.855-18.034l-1 45h-17z"/><path fill="currentColor" d="M586.66 67.76c2.106-.01 4.21-.04 6.315-.072 10.44-.082 21.717.22 30.025 7.312 4.834 5.054 7 9.363 7.375 16.313-.203 7.123-3.005 12.577-7.937 17.625-2.085 1.964-4.035 3.46-6.438 5.062l2.047 1.778c4.27 4.275 7.117 9.635 10.203 14.785l1.93 3.154c5.099 8.435 5.099 8.435 5.82 12.283-2.876.109-5.748.188-8.625.25l-2.45.102c-5.497.089-8.786-.397-12.925-4.352-2.373-3.597-4.351-7.354-6.312-11.187l-3.176-6.043c-.46-.891-.92-1.782-1.392-2.7C600 120 600 120 599 119l-7-1v28c-2.95.02-5.9.04-8.937.063l-2.82.027-2.208.008-2.27.016C574 146 574 146 573 145c-.1-2.367-.136-4.706-.13-7.074l-.005-2.242q-.004-3.685.002-7.371l-.003-5.101q-.002-5.35.006-10.703.006-6.875-.004-13.751-.004-5.268 0-10.536 0-2.536-.002-5.072-.004-3.537.007-7.076l-.006-2.137c.038-8.72 6.69-6.158 13.796-6.177M592 83v22l5.688-.312 3.199-.176c4.004-.658 6.958-1.972 9.426-5.262 1.308-4.282 1.223-7.91-.438-12.062-2.508-2.927-4.087-3.43-7.875-4.188z"/><path fill="currentColor" d="M548.727 73.602A110 110 0 0 1 555 78a877 877 0 0 1-2.375 4.375l-1.336 2.46C549.999 87 549.999 87 547.999 89c-3.93.562-6.321-.037-9.686-1.937-6.36-3.398-13.275-3.95-20.188-1.938-5.271 2.09-8.11 5.06-10.875 10-3.265 8.672-2.746 17.379.75 25.875 2.732 4.895 6.688 7.443 12 9 2.996.33 5.93.288 8.938.188l2.36-.041A471 471 0 0 0 537 130v-11l-4.375.125c-2.46.07-2.46.07-4.625-.125l-2-2v-12h28c.092 4.486.172 8.967.22 13.453q.03 2.286.082 4.574c.049 2.194.07 4.388.089 6.583l.064 3.999c-.527 3.929-1.355 5.024-4.455 7.39-2.218 1.232-2.218 1.232-4.5 2.189l-2.281.98c-10.653 3.995-25.337 3.284-35.75-.914-10.061-5.11-17.9-13.254-21.777-23.894-3.305-11.277-1.852-22.63 3.496-33.11 5.664-9.278 13.254-14.807 23.712-17.792 11.89-2.592 25.384-.99 35.827 5.144M676.133 68.902l2.44.01 2.552.025 2.574.014q3.15.019 6.3.05c8.652 20.737 16.68 41.698 24.616 62.72l.864 2.284.797 2.114a162 162 0 0 0 1.93 4.74C719 143 719 143 719 146c-2.564.135-5.121.234-7.687.312l-2.186.127c-3.795.087-5.662-.132-8.896-2.27C698 141 698 141 694 130h-28l-4 12c-4 4-4 4-6.014 4.454-.692-.02-1.383-.042-2.095-.064l-2.285-.039-2.356-.1-2.402-.056c-1.95-.047-3.9-.119-5.848-.195a338 338 0 0 1 6.188-17.426l.906-2.358q1.45-3.765 2.906-7.529a14745.44 14745.44 0 0 1 6.064-15.683 4140 4140 0 0 0 4.504-11.689c1.242-3.232 2.494-6.46 3.745-9.69l1.36-3.56 1.253-3.214L669 72.065c1.65-3.412 3.65-3.188 7.132-3.163M679 88q-2.008 5.903-4 11.812l-1.156 3.393-1.094 3.252-1.015 3C671 112 671 112 671 115h18a334 334 0 0 0-5.562-19.125l-.636-2.01c-.542-1.642-1.166-3.257-1.802-4.865zM423 69h50v15h-31v16h24v14h-24v17h31v15h-50z"/><path fill="currentColor" d="M346 68q11.904-.035 23.808-.052 5.528-.007 11.055-.023 5.33-.016 10.659-.02 2.037-.002 4.075-.011 2.845-.009 5.69-.008l3.277-.006C407 68 407 68 408 69c.144 4.668.042 9.329 0 14h-22v63h-18c-1-1-1-1-1.12-3.436l.006-3.277.001-3.701.015-4.027.005-4.099q.006-5.403.024-10.806c.011-3.673.015-7.346.02-11.019Q366.969 94.817 367 84h-21zM222 69h19v77h-19z"/><path fill="#29aefb" d="M106.234 19.715c5.014 2.33 9.71 5.232 14.46 8.052 1.862 1.104 3.731 2.198 5.601 3.291l3.584 2.121 3.268 1.93c2.651 1.757 4.708 3.555 6.853 5.891-3.777 0-5.302-1.178-8.516-3.14-1.086-.66-2.173-1.318-3.293-1.997l-3.44-2.113-6.704-4.078-3.005-1.84C111.726 25.834 108.362 23.92 105 22v68h-1V57h-2V20c2-1 2-1 4.234-.285"/><path fill="#2ec4fa" d="M186 75q.231 12.022.443 24.044.098 5.583.205 11.165.104 5.388.195 10.776.036 2.055.078 4.11.056 2.88.101 5.759l.06 3.311c-.073 2.513-.131 4.51-1.082 6.835-3.623 1.208-4.641.543-8-1v-2l-5-2v-3l10 6V77l-12 8h-2c1.34-4.021 3.917-5.163 7.375-7.25l1.789-1.141c4.463-2.733 4.463-2.733 7.836-1.609"/><path fill="#0d79fa" d="M12 74c3.959 1.433 7.287 3.331 10.812 5.625l2.958 1.914L28 83l-3 1-11-7v62l12-8h2c-1.509 4.226-4.142 5.627-7.938 7.812l-3.214 1.895C14 142 14 142 11 141q-.035-12.882-.052-25.764-.007-5.982-.023-11.962-.016-5.767-.02-11.535-.003-2.205-.011-4.41-.01-3.08-.008-6.157l-.006-3.546C11 75 11 75 12 74"/><path fill="#025df7" d="m1 64 2 1c1.435 9.305 1.148 18.965 1.133 28.359l.003 3.971q.002 4.12-.006 8.239-.006 5.237.004 10.475.004 5.064-.001 10.128l.006 3.754c-.016 6.099-.213 11.987-1.163 18.019.031 2.636.796 3.672 2.462 5.68L8 156c-2.375-.312-2.375-.312-5-1-2.562-3.843-2.266-6.966-2.227-11.419l-.001-2.602c.001-2.841.017-5.681.033-8.522l.008-5.906c.008-5.184.028-10.367.05-15.55.02-5.289.029-10.578.039-15.866Q.936 79.567 1 64"/><path fill="#0362f8" d="M45 179c3.522 1.319 6.646 2.874 9.852 4.836l2.803 1.71 2.97 1.829 3.063 1.876C85.021 202.347 85.021 202.347 95 209c6.974 1.102 11.048-2.057 16.562-5.812q2.469-1.64 4.942-3.27l2.332-1.545c2.646-1.679 5.322-3.06 8.164-4.373l1 2q-5.408 3.405-10.834 6.781a942 942 0 0 0-3.68 2.308 1002 1002 0 0 1-5.31 3.313l-3.222 2.016c-2.822 1.511-4.771 2.39-7.954 2.582-2.102-.798-2.102-.798-4.195-2.105l-2.391-1.464-2.539-1.619-2.658-1.645A1058 1058 0 0 1 77 201l-5.082-3.191a1843 1843 0 0 1-9.527-6.036 382 382 0 0 0-8.469-5.234l-1.864-1.12q-2.437-1.455-4.882-2.896L45 181z"/><path fill="#0980fc" d="M104 136h1q.105 11.487.155 22.974c.016 3.556.037 7.112.071 10.668.039 4.085.054 8.171.067 12.256l.047 3.88.001 3.579.02 3.163L105 195l-3 2q-.075-11.585-.11-23.169-.015-3.94-.041-7.88c-.024-3.778-.035-7.556-.044-11.334l-.032-3.552c-.001-10.077-.001-10.077 2.227-15.065"/><path fill="#0b72f9" d="M94 126h1c.622 15.937 1.104 31.863 1.125 47.812l.014 3.856c-.011 6.84-.277 13.544-1.139 20.332-4 0-4 0-7-2v-2l5 2-.007-2.389q-.03-11.167-.045-22.334a7323 7323 0 0 0-.023-11.481q-.016-5.543-.02-11.087-.002-2.111-.011-4.222-.009-2.965-.008-5.931l-.006-3.405c.119-3.13.535-6.076 1.12-9.151"/><path fill="#23aef8" d="M93 18c2 1 2 1 2.617 2.78.396 2.295.51 4.418.512 6.747l.01 2.706-.006 2.919.003 3.061q0 3.221-.006 6.443-.005 4.816.007 9.631A684 684 0 0 1 95 92h-1c-.818-8.481-1.194-16.905-1.316-25.422l-.063-3.715q-.096-5.806-.183-11.613l-.131-7.93Q92.147 33.66 92 24h-7c2.459-2.635 4.578-4.745 8-6"/><path fill="#2fc6f8" d="M140 41a61.7 61.7 0 0 1 9.809 4.723l2.745 1.62 2.884 1.719 2.953 1.753A580 580 0 0 1 181 65c-1.184 3.552-2.05 3.973-5.125 5.938l-2.461 1.574C168.745 75.39 164.181 78.116 159 80l-1-2 19-12c-5.325-3.55-10.523-6.982-16.004-10.234l-3.74-2.239a1875 1875 0 0 0-5.787-3.443c-1.891-1.12-3.776-2.25-5.66-3.381l-3.382-2.011L140 43z"/><path fill="#2ec1f7" d="M189 59c3.653 1.25 4.781 1.671 7 5 .241 2.715.241 2.715.227 6.032v3.761l-.032 4.062-.008 4.158c-.008 3.645-.028 7.289-.05 10.934-.02 3.72-.029 7.44-.039 11.16Q196.064 115.054 196 126h-2l-.011-2.289q-.057-10.683-.173-21.364c-.039-3.661-.072-7.322-.087-10.983q-.025-5.301-.097-10.601c-.022-2.003-.024-4.006-.026-6.009l-.06-3.7-.027-3.257c-.638-3.439-1.955-4.519-4.519-6.797z"/><path fill="#20a3f8" d="M135 110c12.537 6.996 24.762 14.497 37 22l-2 2-1.646-.99q-3.801-2.288-7.604-4.572l-2.755-1.658a722 722 0 0 0-17.975-10.475C138 115 138 115 137 113l-7 4 4 5c-4.033 0-5.835-1.609-9-4v-2c2.188-1.508 2.188-1.508 5-3.125l2.812-1.633z"/><path fill="#20a2f7" d="M102 57h2l-.099 3.01c-.105 3.711-.131 7.419-.133 11.132a175 175 0 0 1-.101 4.804c-.173 5.249-.132 9.982 1.333 15.054 2.999 2.771 5.66 4.229 9.419 5.789L117 98v3c-2.25 1.75-2.25 1.75-5 3-2.313-.312-2.313-.312-4-1l5-4-2.152-1.277-2.786-1.661-2.777-1.652C103 93 103 93 102 92c-.089-2.594-.115-5.16-.098-7.754l.005-2.35q.01-3.729.031-7.458l.013-5.045q.017-6.196.049-12.393"/><path fill="#26b0f8" d="M194 126h2c.145 4.229.234 8.457.312 12.688l.127 3.63c.123 8.825.123 8.825-2.408 12.682-3.887 2.565-7.79 5.019-11.843 7.312l-2.389 1.377A922 922 0 0 1 174 167v-3c1.636-1.319 1.636-1.319 3.902-2.629l2.448-1.447 2.588-1.486q2.517-1.464 5.027-2.942l2.269-1.307C192 153 192 153 193 151c.153-1.885.25-3.774.316-5.664l.127-3.398.119-3.563.131-3.586q.16-4.394.307-8.789"/><path fill="#0665f9" d="M12 107h1l1 32 12-8h2c-1.509 4.226-4.142 5.627-7.938 7.812l-3.214 1.895C14 142 14 142 11 141q-.042-6.531-.062-13.062l-.026-3.725c-.016-5.841.003-11.465 1.088-17.213"/><path fill="#2cc1f8" d="M106.234 19.715c5.014 2.33 9.71 5.232 14.46 8.052 1.862 1.104 3.731 2.198 5.601 3.291l3.584 2.121 3.268 1.93c2.651 1.757 4.708 3.555 6.853 5.891-3.777 0-5.302-1.178-8.516-3.14-1.086-.66-2.173-1.318-3.293-1.997l-3.44-2.113q-4.942-3.008-9.886-6.01a844 844 0 0 1-5.152-3.152c-1.536-.925-3.119-1.769-4.713-2.588l-2 1v11h-1V20c2-1 2-1 4.234-.285"/><path fill="#0462f8" d="m36 137 2 2-17 10c1.183 3.549 1.918 3.846 5.035 5.699l2.451 1.475 2.576 1.514 2.588 1.548A990 990 0 0 0 40 163l-2 2a3382 3382 0 0 1-10.438-6.375l-3.009-1.828-2.862-1.758-2.65-1.619C17 152 17 152 16 150h2l1-3c1.674-1.259 1.674-1.259 3.816-2.48l2.315-1.338 2.431-1.37 2.444-1.404A841 841 0 0 1 36 137"/><path fill="#26b0f7" d="M184 101h1v21l2 1v17c-4 2-4 2-6.75 1.125L178 140v-2l-5-2v-3l10 6z"/><path fill="#0b72f7" d="m1 64 2 1c2.416 14.949 1.224 30.984 0 46-2.09-3.135-2.247-3.818-2.227-7.38v-2.668l.032-2.87.008-2.947c.011-3.107.037-6.215.062-9.323l.027-6.318Q.937 71.747 1 64"/><path fill="#3ebbff" d="M197 64h1v88h-1z"/><path fill="#005af8" d="M8 156c3.674 1.365 6.9 3.033 10.238 5.082l2.987 1.826 3.087 1.904 3.053 1.87q2.955 1.81 5.899 3.637a244 244 0 0 0 5.249 3.139C40.39 174.562 42.204 175.77 44 177v3c-9.871-5.596-19.44-11.64-29-17.748a132 132 0 0 0-5.066-2.986L8 158z"/><path fill="currentColor" d="M387 84h20v1h-19v60h-1zM346 85h20v60h-1V86h-19z"/><path fill="#33cff8" d="M153 37c7.215 3.445 14.037 7.323 20.812 11.562l2.772 1.709c4.341 2.7 8.525 5.392 12.416 8.729l-2 1c-1.841-.845-1.841-.845-4.078-2.211l-2.501-1.512-2.671-1.652-2.71-1.656A1578 1578 0 0 1 167 48l-2.312-1.424a755 755 0 0 1-5.938-3.701l-1.786-1.107C155.606 40.9 154.296 39.957 153 39z"/><path fill="currentColor" d="M421 69h1v77h-1zM331 69h1v77h-1zM220 69h1v77h-1zM571 69h1v76h-1zM260 69h1v76h-1zM242 69h1v76h-1z"/><path fill="#01f7fe" d="m106 23 3 2h-2l1 67-3-1z"/><path fill="#2fc4f7" d="M97 4c4.506.565 7.83 2.452 11.613 4.816l1.862 1.14c1.95 1.195 3.894 2.401 5.837 3.606q1.989 1.224 3.979 2.444Q125.152 18.992 130 22l-2 2c-10.612-5.584-10.612-5.584-15.062-8.875C110 13 110 13 108 13q-1.514-1.486-3-3a101 101 0 0 0-4.188-2.625A95 95 0 0 1 97 5z"/><path fill="#00fbff" d="M90 25h1l1 66h-3z"/><path fill="#0003fe" d="m90 126 2 1-1 65h-1z"/><path fill="#1282fa" d="M94 126h1q.252 6.484.482 12.97.08 2.204.166 4.408c.083 2.117.157 4.235.231 6.352l.143 3.857c-.019 2.987-.305 5.525-1.022 8.413h-1c-.837-3.643-1.129-7.012-1.133-10.746l-.004-3.287.012-3.405-.012-3.392.004-3.291.004-2.982c.135-3.034.572-5.915 1.129-8.897"/><path fill="currentColor" d="M443 115h23v1h-22v13h29v1h-30z"/><path fill="#0064d4" d="m14 78 3 2h-2l1 55 2 1-4 2z"/><path fill="currentColor" d="M443 85h30v1h-29v12h22v1h-23z"/><path fill="#31b3fd" d="M183 78v60l-3-2h2V80l-2-1c2-1 2-1 3-1"/><path fill="#0d78f8" d="M131 180c-1.994 5.982-9.394 8.864-14.719 11.727-2.986 1.667-5.818 3.54-8.652 5.453L106 198l-2-1c3.962-4.313 9.152-7.079 14.062-10.188l3.088-1.982 2.948-1.873 2.703-1.719C129 180 129 180 131 180"/><path fill="#28b5f8" d="M97 5v2l-2.91 1.641c-4.567 2.609-9.046 5.357-13.528 8.109l-2.505 1.535L72 22l-2-2q5.28-3.213 10.571-6.409 1.8-1.089 3.597-2.182c1.72-1.047 3.444-2.087 5.168-3.128l3.142-1.904C95 5 95 5 97 5"/><path fill="#21a5f7" d="M68 21h2c-1.334 3.146-2.495 4.65-5.438 6.375l-2.132 1.258L60 30l-2.867 1.617C49.569 35.81 49.569 35.81 46 37c1.223-3.669 2.17-3.982 5.438-5.883l2.71-1.597L57 27.875a5061 5061 0 0 0 5.562-3.258l2.504-1.45C67 22 67 22 68 21"/><path fill="currentColor" d="M347 66h60v1h-60z"/><path fill="#0a71f8" d="m126 194 2 2a1259 1259 0 0 1-10.034 6.464 450 450 0 0 0-3.41 2.203 539 539 0 0 1-4.915 3.149l-2.984 1.921C104 211 104 211 100 210z"/><path fill="#0c76f8" d="M54 114h2c-1.412 3.534-2.809 4.757-6.188 6.438-3.066 1.592-5.862 3.237-8.624 5.312-2.769 1.954-4.037 2.621-7.188 3.25l-1-2 1.82-1.086q4.06-2.423 8.118-4.852l2.865-1.708 2.724-1.631 2.524-1.508C53 115 53 115 54 114"/><path fill="#0c74f8" d="M103 168h1c.254 4.457.474 8.916.688 13.375l.22 3.852.166 3.671.175 3.396L105 195l-3 2c-.029-4.271-.047-8.542-.062-12.812l-.026-3.682-.01-3.526-.016-3.253C102 171 102 171 103 168"/><path fill="#0c73f8" d="m60 122 3 2c-3.598 2.177-7.204 4.34-10.812 6.5l-3.104 1.879-2.979 1.777-2.745 1.651C41 137 41 137 38 137c3.599-4.14 7.98-6.514 12.688-9.188l4.636-2.667 2.065-1.177C59 123 59 123 60 122"/><path fill="#1fa2f9" d="M93 56h1v9l2 1-1 26h-1c-1.467-11.949-1.095-23.986-1-36"/><path fill="#31caf7" d="M130 23c3.364 1.267 6.37 2.711 9.426 4.602l2.412 1.484 2.474 1.539 2.534 1.563q3.08 1.9 6.154 3.812l-2 2c-2 0-2 0-3.388-1.349L146 35a77 77 0 0 0-3.793-2.41l-2.158-1.311q-2.252-1.35-4.508-2.695l-2.146-1.307-1.974-1.18L130 25z"/><path fill="currentColor" d="M423 147h50v1h-50zM423 67h50v1h-50z"/><path fill="#1fa0f8" d="M135 122c7.568 3.996 14.837 8.317 22 13-3 1-3 1-4.977.151l-2.218-1.354-2.418-1.473-2.512-1.574-2.535-1.527c-6.211-3.835-6.211-3.835-7.34-7.223"/><path fill="#24abf8" d="M144 87v3c-1.652 1.35-1.652 1.35-3.938 2.699l-2.46 1.475L135 95.688l-2.602 1.548A788 788 0 0 1 126 101l-2-2z"/><path fill="#20a4f8" d="M162 139c4.272 1.529 7.993 3.715 11.812 6.125l1.811 1.129q2.19 1.369 4.377 2.746l-2 4-2-2 1-1-3.281-1.898-4.219-2.477-2.168-1.25c-1.811-1.07-3.576-2.217-5.332-3.375z"/><path fill="currentColor" d="M280 103c2 2 2 2 2.135 5.991a447 447 0 0 1-.158 5.173l-.076 2.749c-.083 2.904-.179 5.808-.276 8.712q-.087 2.949-.172 5.898-.212 7.24-.453 14.477h-1z"/><path fill="#27b1f8" d="m159 89 2 2a1105 1105 0 0 1-8.812 5.562l-2.526 1.616-2.432 1.513-2.237 1.413C143 102 143 102 140 101z"/><path fill="currentColor" d="M311 69h1v43c-2-2-2-2-2.135-5.991q.064-2.587.158-5.173l.076-2.749c.083-2.904.179-5.808.276-8.712q.087-2.949.172-5.898.212-7.24.453-14.477"/><path fill="#1d9cf7" d="m174 152 2 2c-4.452 2.999-8.917 5.98-13.438 8.875l-1.933 1.242C159 165 159 165 157 165c1.138-3.413 1.653-3.695 4.598-5.48l2.177-1.338 2.287-1.37 2.299-1.404A827 827 0 0 1 174 152"/><path fill="#34d1fc" d="M189 59c4.875 1.875 4.875 1.875 6 3 .088 2.219.107 4.44.098 6.66l-.005 2.014c-.005 2.129-.018 4.259-.031 6.388l-.013 4.323Q195.032 86.693 195 92h-1l-.028-2.415c-.054-3.612-.138-7.223-.222-10.835l-.043-3.801-.098-3.652-.063-3.364C192.888 64.4 191.64 63.33 189 61z"/><path fill="#29b8fa" d="M93 18c2 1 2 1 2.613 2.719.445 2.624.556 5.119.575 7.781l.042 2.844C96 34 96 34 94 38l-1-16-5 2-3-1a333 333 0 0 1 3.875-2.562l2.18-1.442z"/><path fill="#1d9ff8" d="m60 38 2 2q-3.931 2.509-7.875 5l-2.262 1.445-2.168 1.367-1.999 1.27C46 50 46 50 44 50c1.118-3.353 1.484-3.583 4.379-5.262l2.041-1.201 2.142-1.225 2.155-1.259A813 813 0 0 1 60 38"/><path fill="#23aaf8" d="m78 27 2 2-16 10-2-2z"/><path fill="#1383f9" d="M77.216 113.383 79 114a920 920 0 0 1-7.312 4.562l-2.092 1.327-2.022 1.24-1.856 1.158C64 123 64 123 61 122a665 665 0 0 1 6.75-4.563l1.922-1.326c4.833-3.197 4.833-3.197 7.544-2.728"/><path fill="currentColor" d="M593 119h6v3l-5-2v25h-1z"/><path fill="#1181f8" d="M28 84c7.141 1.752 7.141 1.752 10 5l2.688 1.562L43 92v2c-3.656-1.37-6.955-3.01-10.312-5l-2.676-1.562L28 86z"/><path fill="#1ea1f8" d="m189 158-15 9v-3c2.266-1.859 2.266-1.859 5.25-3.75l2.953-1.922C185 157 185 157 189 158"/><path fill="currentColor" d="M666 130h28l-1 3v-2h-26l-1 2z"/><path fill="currentColor" d="M555 105h1v32h-1z"/><path fill="#1383f8" d="m69 105 2 1c-2.344 3.516-4.169 4.358-8 6h-3v2l-3 1-1-2a881 881 0 0 1 6.375-4.062l1.828-1.182c1.562-.981 3.177-1.875 4.797-2.756"/><path fill="#29b7f8" d="M158 79c-1.466 3.943-3.373 5.018-7.125 6.75l-2.758 1.297L146 88l-1-2q2.683-1.757 5.375-3.5l3.023-1.969C156 79 156 79 158 79"/><path fill="currentColor" d="M574 66h31v1h-31z"/><path fill="#1e9ef9" d="m130 107 2 2a403 403 0 0 1-5.25 3.562l-2.953 2.004C121 116 121 116 117 115z"/><path fill="#1286f9" d="m148 180 2 2-12 8-2-2c5.625-4 5.625-4 9-4v-2h3z"/><path fill="currentColor" d="M526 103h28v1h-28z"/><path fill="currentColor" d="M593 84h8v1h-7l1 19h-2z"/><path fill="#1e9ff8" d="M124 102q-2.153 1.474-4.312 2.938l-2.426 1.652C115 108 115 108 112 109l-1-2a416 416 0 0 1 4.812-3.062l2.708-1.723C121 101 121 101 124 102"/><path fill="#1485f9" d="M23 69q2.411 1.146 4.812 2.312l2.708 1.301C32.789 73.882 34.292 75.066 36 77l-2 1c-2.602-1.363-2.602-1.363-5.625-3.312l-3.039-1.926L23 71z"/><path fill="#0283ff" d="m90 107 2 1-2.047 1.426-2.703 1.886-2.672 1.864A242 242 0 0 0 78 118l-1-3a881 881 0 0 1 6.375-4.062l1.828-1.182c1.562-.981 3.177-1.875 4.797-2.756"/><path fill="#0f8cf9" d="m134 108 1 2-2.117 1.242-2.758 1.633-2.742 1.617C125 116 125 116 123 118l-1-3z"/><path fill="#2dbdf4" d="M97 5v2c-6.45 4.093-6.45 4.093-9.234 3.621L86 10a784 784 0 0 1 4.375-2.5l2.461-1.406C95 5 95 5 97 5"/><path fill="currentColor" d="M517 147h20v1c-6.902.839-13.114 1.016-20 0z"/><path fill="#008dff" d="m69 102 2 2a256 256 0 0 1-3.812 2.562l-2.145 1.442C63 109 63 109 60 108c2.88-2.24 5.849-4.162 9-6"/><path fill="currentColor" d="m686 110 2 4h-16l1-2 13 1z"/><path fill="#1383f7" d="M19 63c2 2 2 2 2 4l2 2-2 1c-2.062-.75-2.062-.75-4-2l-1-3z"/><path fill="#1080f9" d="m9 57 2 1c-2.773 3.081-5.063 4.688-9 6 1.333-4 3.496-4.838 7-7"/><path fill="currentColor" d="M515 66h19v1h-19zM222 147h18v1h-18zM672 67h18v1h-18zM222 67h18v1h-18z"/><path fill="#0762f9" d="M80 189c3.375 1.186 5.647 2.276 8 5l-2 1a125 125 0 0 1-6-4z"/><path fill="#0566f8" d="m64 179 8 4-2 2-7-4z"/><path fill="#0463f8" d="m48 169 8 4-2 2-7-4z"/><path fill="currentColor" d="M641 147h17v1h-17zM618 147h17v1h-17z"/><path fill="currentColor" d="M528 120h8v9l-2-1 1-7h-7z"/><path fill="currentColor" d="M313 67h17v1h-17zM703 147h16v1h-16zM263 147h16v1h-16z"/><path fill="#22a4f1" d="m117 101 2 1a333 333 0 0 1-3.875 2.562l-2.18 1.442L111 107l-2-1a333 333 0 0 1 3.875-2.562l2.18-1.442z"/><path fill="currentColor" d="M474 132h1v14h-1zM520 129h14v1h-14zM467 100h1v14h-1zM474 69h1v14h-1zM409 69h1v14h-1zM344 69h1v14h-1zM263 67h13v1h-13zM318 147h12v1h-12zM524 105h1v12h-1zM506 99h1c.25 6.625.25 6.625-2 10zM482 102h1v10h-1zM679 91l2 1v3h-2l-1 2zM631 87h1v9h-1zM595 102h8v1h-8zM676 100c.625 1.875.625 1.875 1 4l-2 2zM506 109h1v6h-1z"/><path fill="#0896f6" d="m105 107 4 1h-4z"/><path fill="currentColor" d="M609 90h1v6h-1zM542 90h6v1h-6zM486 88l1 3-2 2zM523 84h6v1h-6zM696 139l2 4-2-1zM508 118l2 4-2-1zM483 112h1v5h-1zM483 97h1v5h-1zM529 85h5v1h-5zM518 85h5v1h-5zM606 67h5v1h-5zM534 67h5v1h-5z"/><path fill="#0039ff" d="m113 205 2 1h-3z"/><path fill="#0029ef" d="m74 200 3 1h-3z"/><path fill="#0029bf" d="m66 195 3 1h-3z"/><path fill="#0029ef" d="m29 172 3 1h-3z"/><path fill="#0029bf" d="m21 167 3 1h-3z"/><path fill="currentColor" d="m537 146 4 1ZM512 146l4 1ZM491 131l2 1-1 2zM622 119l2 1-1 2z"/><path fill="#0039ff" d="m44 118 2 1h-3z"/><path fill="currentColor" d="m484 117 1 4ZM626 105v3ZM305 103l2 1-1 2zM301 98l2 1-1 2zM484 93l1 4ZM512 88l2 1h-3zM602 85l4 1ZM630 83l1 4ZM493 78v3ZM625 75l2 1-1 2zM496 75l2 1h-3zM622 73l3 1h-3zM511 67l4 1Z"/><path fill="#1ce2ef" d="M174 65h2v2h-2z"/><path fill="#0090ff" d="M21 65h2v2h-2z"/><path fill="#1ce2ff" d="m168 61 3 1h-3z"/><path fill="#0086ff" d="m32 58 2 1h-3z"/><path fill="#0c46ff" d="m50 47 2 1h-3z"/><path fill="#1ca2ff" d="m158 38 3 1h-3zM127 36l3 1h-3z"/><path fill="#1c92ef" d="m73 33 2 1h-3z"/><path fill="#1c62ff" d="m109 25 3 1h-3z"/><path fill="#0055d4" d="m97 214 3 1Z"/><path fill="#1d6fff" d="m174 149 2 2h-2z"/><path fill="currentColor" d="m615 146 3 1ZM315 146l3 1ZM541 145l3 1ZM509 145l3 1ZM517 128l3 1ZM617 113h2l-1 2z"/><path fill="#008ee9" d="m97 113 3 1Z"/><path fill="#2290ff" d="m97 103 3 1Z"/><path fill="#0055e9" d="m71 101 2 2h-2z"/><path fill="currentColor" d="m603 101 3 1ZM534 86l3 1ZM612 68l3 1ZM539 68l3 1ZM508 68l3 1Z"/><path fill="#1cb8ff" d="m97 2 3 1Z"/><path fill="#004aff" d="m100 213 2 1Z"/><path fill="#006aff" d="m102 212 2 1Z"/><path fill="#0080ff" d="m93 212 2 1Z"/><path fill="#009fdf" d="m105 210 2 1Z"/><path fill="#006aff" d="m90 210 2 1Z"/><path fill="#00b2ff" d="m107 209 2 1Z"/><path fill="#03f" d="m88 209 2 1Z"/><path fill="#006adf" d="m110 207 2 1Z"/><path fill="#0080ff" d="m85 207 2 1Z"/><path fill="#006aff" d="m82 205 2 1Z"/><path fill="#0073ff" d="m115 204 2 1Z"/><path fill="#03f" d="m80 204 2 1Z"/><path fill="#05f" d="m118 202 2 1Z"/><path fill="#0060ff" d="m77 202 2 1Z"/><path fill="#002aea" d="m120 201 2 1Z"/><path fill="#0073ff" d="m123 199 2 1Z"/><path fill="#03f" d="m72 199 2 1Z"/><path fill="#05f" d="m126 197 2 1Z"/><path fill="#006aff" d="m69 197 2 1Z"/><path fill="#004cff" d="m128 196 2 1Z"/><path fill="#0080ff" d="m131 194 2 1Z"/><path fill="#00b2ff" d="m64 194 2 1Z"/><path fill="#0095ff" d="m134 192 2 1Z"/><path fill="#03f" d="m88 192 2 1Z"/><path fill="#05f" d="m61 192 2 1Z"/><path fill="#004cff" d="m136 191 2 1Z"/><path fill="#006aff" d="m86 191 2 1Z"/><path fill="#03f" d="m59 191 2 1Z"/><path fill="#006aff" d="m110 190 2 1Z"/><path fill="#0080ff" d="m139 189 2 1ZM83 189l2 1Z"/><path fill="#0073ff" d="m56 189 2 1Z"/><path fill="#00b2ff" d="m113 188 2 1Z"/><path fill="#0080df" d="m142 187 2 1Z"/><path fill="#00bfff" d="m115 187 2 1Z"/><path fill="#03f" d="m80 187 2 1Z"/><path fill="#05f" d="m53 187 2 1Z"/><path fill="#0cf" d="m144 186 2 1Z"/><path fill="#006aff" d="m78 186 2 1Z"/><path fill="#03f" d="m51 186 2 1Z"/><path fill="#0080ff" d="m118 185 2 1Z"/><path fill="#006ad4" d="m147 184 2 1Z"/><path fill="#0080ff" d="m75 184 2 1Z"/><path fill="#0073e5" d="m48 184 2 1Z"/><path fill="#00b2ff" d="m121 183 2 1Z"/><path fill="#00bfff" d="m150 182 2 1Z"/><path fill="#0080df" d="m123 182 2 1Z"/><path fill="#03f" d="m72 182 2 1Z"/><path fill="#006aff" d="m45 182 2 1Z"/><path fill="#0cf" d="m152 181 2 1Z"/><path fill="#006aff" d="m70 181 2 1Z"/><path fill="#03f" d="m43 181 2 1Z"/><path fill="#0080ff" d="m126 180 2 1Z"/><path fill="#0095df" d="m155 179 2 1Z"/><path fill="#0073ff" d="m67 179 2 1Z"/><path fill="#0080ff" d="m40 179 2 1Z"/><path fill="#004cff" d="m157 178 2 1ZM129 178l2 1Z"/><path fill="#0095ff" d="m131 177 2 1Z"/><path fill="#03f" d="m64 177 2 1Z"/><path fill="#006aff" d="m37 177 2 1Z"/><path fill="#008cff" d="m160 176 2 1Z"/><path fill="#05f" d="m62 176 2 1Z"/><path fill="#03f" d="m35 176 2 1Z"/><path fill="#0080ff" d="m134 175 2 1Z"/><path fill="#0af" d="m163 174 2 1Z"/><path fill="#0073ff" d="m59 174 2 1Z"/><path fill="#0060ff" d="m32 174 2 1Z"/><path fill="#19ccff" d="m165 173 2 1Z"/><path fill="#004cff" d="m137 173 2 1Z"/><path fill="#007fff" d="m139 172 2 1Z"/><path fill="#03f" d="m56 172 2 1Z"/><path fill="#008ce5" d="m168 171 2 1Z"/><path fill="#05f" d="m54 171 2 1Z"/><path fill="#03f" d="m27 171 2 1Z"/><path fill="#008cff" d="m142 170 2 1Z"/><path fill="#00aad4" d="m171 169 2 1Z"/><path fill="#0073e5" d="m51 169 2 1Z"/><path fill="#0055d4" d="m24 169 2 1Z"/><path fill="#19ccff" d="m173 168 2 1Z"/><path fill="#0040ea" d="m145 168 2 1Z"/><path fill="#007fff" d="m147 167 2 1Z"/><path fill="#03f" d="m48 167 2 1Z"/><path fill="#209fff" d="m176 166 2 1Z"/><path fill="#05f" d="m46 166 2 1Z"/><path fill="#03f" d="m19 166 2 1Z"/><path fill="#008cff" d="m150 165 2 1Z"/><path fill="#0095ff" d="m179 164 2 1Z"/><path fill="#0073e5" d="m43 164 2 1Z"/><path fill="#05f" d="m16 164 2 1Z"/><path fill="#19ccff" d="m181 163 2 1Z"/><path fill="#194cff" d="m153 163 2 1Z"/><path fill="#03f" d="m14 163 2 1Z"/><path fill="#0af" d="m155 162 2 1Z"/><path fill="#03f" d="m40 162 2 1Z"/><path fill="#209fff" d="m184 161 2 1Z"/><path fill="#05f" d="m38 161 2 1Z"/><path fill="#0073e5" d="m11 161 2 1Z"/><path fill="#198cbf" d="m158 160 2 1Z"/><path fill="#0080df" d="m187 159 2 1Z"/><path fill="#00bfff" d="m160 159 2 1Z"/><path fill="#0073e5" d="m35 159 2 1Z"/><path fill="#05f" d="m8 159 2 1Z"/><path fill="#19ccff" d="m189 158 2 1Z"/><path fill="#03f" d="m6 158 2 1Z"/><path fill="#0095d4" d="m163 157 2 1Z"/><path fill="#03f" d="m32 157 2 1Z"/><path fill="#209fff" d="m192 156 2 1Z"/><path fill="#05f" d="m30 156 2 1Z"/><path fill="#0040ff" d="m3 156 2 1Z"/><path fill="#19ccff" d="m166 155 2 1Z"/><path fill="#0080df" d="m168 154 2 1Z"/><path fill="#0073ff" d="m27 154 2 1Z"/><path fill="#209fff" d="m171 152 2 1Z"/><path fill="#03f" d="m24 152 2 1Z"/><path fill="#05f" d="m22 151 2 1Z"/><path fill="#20dfff" d="m172 148 2 1Z"/><path fill="#0080ff" d="m23 148 2 1Z"/><path fill="#198ce5" d="m170 147 2 1Z"/><path fill="currentColor" d="m701 146 2 1Z"/><path fill="#0020ff" d="m26 146 2 1Z"/><path fill="currentColor" d="m659 145 2 1Z"/><path fill="#0080df" d="m167 145 2 1Z"/><path fill="#0073ff" d="m28 145 2 1Z"/><path fill="currentColor" d="m544 144 2 1ZM507 144l2 1Z"/><path fill="#19ccff" d="m165 144 2 1Z"/><path fill="currentColor" d="m546 143 2 1ZM505 143l2 1Z"/><path fill="#006aff" d="m31 143 2 1Z"/><path fill="currentColor" d="m548 142 2 1ZM503 142l2 1Z"/><path fill="#0af" d="m162 142 2 1Z"/><path fill="#00b2ff" d="m33 142 2 1Z"/><path fill="currentColor" d="m550 141 2 1Z"/><path fill="#19ccff" d="m160 141 2 1Z"/><path fill="currentColor" d="m500 140 2 1Z"/><path fill="#05f" d="m36 140 2 1Z"/><path fill="#0af" d="m157 139 2 1Z"/><path fill="#03f" d="m38 139 2 1Z"/><path fill="#194cff" d="m155 138 2 1Z"/><path fill="currentColor" d="m496 137 2 1Z"/><path fill="#006aff" d="m41 137 2 1Z"/><path fill="#0080ff" d="m152 136 2 1Z"/><path fill="#03f" d="m43 136 2 1Z"/><path fill="#194cff" d="m150 135 2 1ZM177 134l2 1Z"/><path fill="#0073e5" d="m46 134 2 1Z"/><path fill="#0080ff" d="m18 134 2 1Z"/><path fill="#20bfff" d="m175 133 2 1Z"/><path fill="#209fff" d="m147 133 2 1Z"/><path fill="#00bfff" d="m49 132 2 1Z"/><path fill="#03f" d="m21 132 2 1Z"/><path fill="#19ccff" d="m172 131 2 1Z"/><path fill="#00bfff" d="m144 131 2 1Z"/><path fill="#0073ff" d="m51 131 2 1Z"/><path fill="#0080ff" d="m23 131 2 1Z"/><path fill="#0af" d="m170 130 2 1Z"/><path fill="#198cbf" d="m142 130 2 1Z"/><path fill="#0095ff" d="m54 129 2 1Z"/><path fill="#03f" d="m26 129 2 1Z"/><path fill="#19ccff" d="m167 128 2 1Z"/><path fill="#0095ff" d="m139 128 2 1Z"/><path fill="#00b2ff" d="m56 128 2 1Z"/><path fill="#05f" d="m28 128 2 1Z"/><path fill="currentColor" d="m515 127 2 1Z"/><path fill="#0095ff" d="m165 127 2 1Z"/><path fill="#19ccff" d="m137 127 2 1Z"/><path fill="currentColor" d="m513 126 2 1Z"/><path fill="#007fff" d="m59 126 2 1Z"/><path fill="#00b2ff" d="m31 126 2 1Z"/><path fill="#198ce5" d="m162 125 2 1Z"/><path fill="#0af" d="m134 125 2 1Z"/><path fill="#004cff" d="m61 125 2 1Z"/><path fill="#0055d4" d="m33 125 2 1Z"/><path fill="#20dfff" d="m160 124 2 1Z"/><path fill="#19ccff" d="m132 124 2 1Z"/><path fill="#0095ff" d="m87 124 2 1Z"/><path fill="#007fd4" d="m109 123 2 1Z"/><path fill="#004cff" d="m85 123 2 1Z"/><path fill="#006ad4" d="m64 123 2 1Z"/><path fill="#0073bf" d="m36 123 2 1Z"/><path fill="#209fff" d="m157 122 2 1Z"/><path fill="#00bfff" d="m129 122 2 1Z"/><path fill="#19ccff" d="m111 122 2 1Z"/><path fill="#004c7f" d="m66 122 2 1Z"/><path fill="#0095ff" d="m38 122 2 1Z"/><path fill="#194cff" d="m127 121 2 1Z"/><path fill="#008cff" d="m82 121 2 1Z"/><path fill="#194cff" d="m154 120 2 1Z"/><path fill="#009fff" d="m114 120 2 1Z"/><path fill="#0073ff" d="m69 120 2 1Z"/><path fill="#0073e5" d="m41 120 2 1Z"/><path fill="#0095b4" d="m152 119 2 1Z"/><path fill="#0080df" d="m117 118 2 1ZM72 118l2 1Z"/><path fill="#19ccff" d="m149 117 2 1ZM119 117l2 1Z"/><path fill="#008cff" d="m74 117 2 1Z"/><path fill="#0080ff" d="m46 117 2 1Z"/><path fill="#0af" d="m147 116 2 1Z"/><path fill="#004cff" d="m49 115 2 1Z"/><path fill="#19ccff" d="m144 114 2 1Z"/><path fill="#0080ff" d="m51 114 2 1Z"/><path fill="#0095ff" d="m142 113 2 1Z"/><path fill="#004cff" d="m54 112 2 1Z"/><path fill="#198ce5" d="m139 111 2 1Z"/><path fill="#19ccff" d="m101 111 2 1Z"/><path fill="#0cf" d="m94 111 2 1Z"/><path fill="#007fff" d="m56 111 2 1Z"/><path fill="currentColor" d="m621 110 2 1Z"/><path fill="#0095ff" d="m103 110 2 1ZM92 110l2 1Z"/><path fill="#0040ff" d="m136 109 2 1Z"/><path fill="#0cf" d="m59 109 2 1Z"/><path fill="#198ce5" d="m135 107 2 1Z"/><path fill="#19ccff" d="m103 106 2 1Z"/><path fill="#008cff" d="m92 106 2 1Z"/><path fill="#004cff" d="m58 106 2 1Z"/><path fill="#0095ff" d="m138 105 2 1Z"/><path fill="#19ccff" d="m140 104 2 1Z"/><path fill="#0af" d="m100 104 2 1Z"/><path fill="#0080df" d="m95 104 2 1Z"/><path fill="#0073ff" d="m55 104 2 1Z"/><path fill="#209fff" d="m143 102 2 1Z"/><path fill="#05f" d="m52 102 2 1Z"/><path fill="#004cff" d="m50 101 2 1Z"/><path fill="#2080df" d="m146 100 2 1Z"/><path fill="#0080ff" d="m119 100 2 1ZM74 100l2 1Z"/><path fill="#19ccff" d="m148 99 2 1Z"/><path fill="#0073e5" d="m47 99 2 1Z"/><path fill="#19ccff" d="m122 98 2 1Z"/><path fill="#004cff" d="m77 98 2 1Z"/><path fill="#20dfff" d="m151 97 2 1Z"/><path fill="#00d4ff" d="m124 97 2 1Z"/><path fill="#0080df" d="m79 97 2 1Z"/><path fill="#05f" d="m44 97 2 1Z"/><path fill="#19ccff" d="m115 96 2 1Z"/><path fill="#008cff" d="m70 96 2 1Z"/><path fill="#004cff" d="m42 96 2 1Z"/><path fill="#20dfff" d="m154 95 2 1Z"/><path fill="#198ce5" d="m127 95 2 1Z"/><path fill="#0095df" d="m113 95 2 1Z"/><path fill="#19ccff" d="m82 95 2 1Z"/><path fill="#0040ff" d="m68 95 2 1Z"/><path fill="#19ccff" d="m156 94 2 1Z"/><path fill="#0af" d="m84 94 2 1Z"/><path fill="#0073e5" d="m39 94 2 1Z"/><path fill="#19e5ff" d="m130 93 2 1Z"/><path fill="#19ccff" d="m110 93 2 1Z"/><path fill="#006ad4" d="m65 93 2 1Z"/><path fill="#2aaaff" d="m159 92 2 1Z"/><path fill="#00d4ff" d="m132 92 2 1Z"/><path fill="#0080ff" d="m108 92 2 1Z"/><path fill="#19ccff" d="m87 92 2 1Z"/><path fill="#007fff" d="m36 92 2 1Z"/><path fill="#1966ff" d="m161 91 2 1Z"/><path fill="#0cf" d="m62 91 2 1Z"/><path fill="#004cff" d="m34 91 2 1Z"/><path fill="#19ccff" d="m135 90 2 1Z"/><path fill="#007fff" d="m60 90 2 1Z"/><path fill="#198cff" d="m164 89 2 1Z"/><path fill="#0095ff" d="m137 89 2 1Z"/><path fill="#0073e5" d="m31 89 2 1Z"/><path fill="currentColor" d="m539 88 2 1Z"/><path fill="#008cff" d="m57 88 2 1Z"/><path fill="currentColor" d="m537 87 2 1ZM514 87l2 1Z"/><path fill="#2aaaff" d="m167 87 2 1Z"/><path fill="#209fff" d="m140 87 2 1Z"/><path fill="#00bfff" d="m55 87 2 1Z"/><path fill="#007fff" d="m28 87 2 1Z"/><path fill="currentColor" d="m516 86 2 1Z"/><path fill="#19e5ff" d="m169 86 2 1Z"/><path fill="#004cff" d="m26 86 2 1Z"/><path fill="#19e5ff" d="m143 85 2 1Z"/><path fill="#0080ff" d="m52 85 2 1Z"/><path fill="#20dfff" d="m172 84 2 1Z"/><path fill="#0af" d="m145 84 2 1Z"/><path fill="#0073e5" d="m23 84 2 1Z"/><path fill="#004cff" d="m49 83 2 1Z"/><path fill="#2abfff" d="m175 82 2 1Z"/><path fill="#19a6ff" d="m148 82 2 1Z"/><path fill="#0af" d="m47 82 2 1Z"/><path fill="#0095ff" d="m20 82 2 1Z"/><path fill="#19e5ff" d="m177 81 2 1Z"/><path fill="#20dfff" d="m150 81 2 1Z"/><path fill="#0cf" d="m18 81 2 1ZM44 80l2 1Z"/><path fill="#20b4d4" d="m153 79 2 1Z"/><path fill="#0080bf" d="m42 79 2 1Z"/><path fill="#19e5ff" d="m156 77 2 1Z"/><path fill="#0080ff" d="m39 77 2 1Z"/><path fill="#2ad4ff" d="m158 76 2 1Z"/><path fill="#004cff" d="m36 75 2 1Z"/><path fill="currentColor" d="m551 74 2 1Z"/><path fill="#198ce5" d="m161 74 2 1Z"/><path fill="#0af" d="m34 74 2 1Z"/><path fill="currentColor" d="m549 73 2 1ZM500 72l2 1Z"/><path fill="#1966ff" d="m164 72 2 1Z"/><path fill="#0cf" d="m31 72 2 1Z"/><path fill="currentColor" d="m619 71 2 1ZM546 71l2 1ZM502 71l2 1Z"/><path fill="#55d4ff" d="m166 71 2 1Z"/><path fill="#0080ff" d="m29 71 2 1Z"/><path fill="currentColor" d="m617 70 2 1ZM544 70l2 1ZM504 70l2 1ZM615 69l2 1ZM542 69l2 1ZM506 69l2 1Z"/><path fill="#19e5ff" d="m169 69 2 1Z"/><path fill="#0080ff" d="m26 69 2 1Z"/><path fill="#209fbf" d="m171 68 2 1Z"/><path fill="#004cff" d="m23 67 2 1Z"/><path fill="#20dfff" d="m171 63 2 1Z"/><path fill="#007fd4" d="m24 63 2 1Z"/><path fill="#0cf" d="m26 62 2 1Z"/><path fill="#19a6e5" d="m166 60 2 1Z"/><path fill="#0080ff" d="m29 60 2 1Z"/><path fill="#20dfff" d="m192 59 2 1Z"/><path fill="#2affff" d="m163 58 2 1Z"/><path fill="#004cff" d="m4 58 2 1Z"/><path fill="#19e5ff" d="m189 57 2 1ZM161 57l2 1Z"/><path fill="#008cff" d="m34 57 2 1Z"/><path fill="#006aff" d="m6 57 2 1Z"/><path fill="#5af" d="m187 56 2 1ZM158 55l2 1Z"/><path fill="#0095ff" d="m37 55 2 1Z"/><path fill="#0cf" d="m9 55 2 1Z"/><path fill="#19a6ff" d="m184 54 2 1Z"/><path fill="#19e5ff" d="m156 54 2 1Z"/><path fill="#19ccff" d="m39 54 2 1Z"/><path fill="#0af" d="m11 54 2 1Z"/><path fill="#2abfff" d="m182 53 2 1Z"/><path fill="#20dfff" d="m153 52 2 1Z"/><path fill="#0af" d="m42 52 2 1Z"/><path fill="#008cbf" d="m14 52 2 1Z"/><path fill="#19e5ff" d="m179 51 2 1ZM151 51l2 1Z"/><path fill="#19ccff" d="m44 51 2 1Z"/><path fill="#0080ff" d="m16 51 2 1Z"/><path fill="#19e5ff" d="m176 49 2 1Z"/><path fill="#209fff" d="m148 49 2 1Z"/><path fill="#0080ff" d="m47 49 2 1Z"/><path fill="#0073e5" d="m19 49 2 1Z"/><path fill="#20dfff" d="m174 48 2 1Z"/><path fill="#209fdf" d="m145 47 2 1Z"/><path fill="#004c7f" d="m22 47 2 1Z"/><path fill="#19e5ff" d="m171 46 2 1ZM143 46l2 1Z"/><path fill="#209fff" d="m52 46 2 1Z"/><path fill="#006ad4" d="m24 46 2 1Z"/><path fill="#5af" d="m169 45 2 1Z"/><path fill="#2aaaff" d="m140 44 2 1Z"/><path fill="#0095ff" d="m55 44 2 1Z"/><path fill="#004cff" d="m27 44 2 1Z"/><path fill="#19a6bf" d="m166 43 2 1Z"/><path fill="#19e5ff" d="m138 43 2 1Z"/><path fill="#19ccff" d="m57 43 2 1Z"/><path fill="#0af" d="m29 43 2 1Z"/><path fill="#2affff" d="m164 42 2 1Z"/><path fill="#2ad4d4" d="m135 41 2 1Z"/><path fill="#0af" d="m60 41 2 1Z"/><path fill="#19ccff" d="m32 41 2 1Z"/><path fill="#19e5ff" d="m161 40 2 1ZM133 40l2 1Z"/><path fill="#19ccff" d="m62 40 2 1Z"/><path fill="#0080df" d="m34 40 2 1Z"/><path fill="#20dfff" d="m130 38 2 1Z"/><path fill="#00bfdf" d="m65 38 2 1Z"/><path fill="#198cff" d="m37 38 2 1Z"/><path fill="#20dfff" d="m156 37 2 1Z"/><path fill="#19e5ff" d="m67 37 2 1Z"/><path fill="#0040ff" d="m39 37 2 1Z"/><path fill="#19e5ff" d="m153 35 2 1Z"/><path fill="#19a6ff" d="m125 35 2 1Z"/><path fill="#209fff" d="m70 35 2 1Z"/><path fill="#009fff" d="m42 35 2 1Z"/><path fill="#55d4ff" d="m151 34 2 1Z"/><path fill="#2ad4ff" d="m122 33 2 1Z"/><path fill="#194cff" d="m45 33 2 1Z"/><path fill="#19e5ff" d="m148 32 2 1ZM120 32l2 1Z"/><path fill="#198cbf" d="m75 32 2 1Z"/><path fill="#0af" d="m47 32 2 1Z"/><path fill="#2affff" d="m146 31 2 1Z"/><path fill="#2aaaff" d="m117 30 2 1Z"/><path fill="#00d4ff" d="m78 30 2 1Z"/><path fill="#19ccff" d="m50 30 2 1Z"/><path fill="#19a6ff" d="m143 29 2 1Z"/><path fill="#19e5ff" d="m115 29 2 1Z"/><path fill="#19ccff" d="m80 29 2 1Z"/><path fill="#0095ff" d="m52 29 2 1Z"/><path fill="#20dfff" d="m141 28 2 1ZM112 27l2 1Z"/><path fill="#2aaaff" d="m83 27 2 1Z"/><path fill="#198cff" d="m55 27 2 1Z"/><path fill="#20dfff" d="m138 26 2 1Z"/><path fill="#19e5ff" d="m85 26 2 1Z"/><path fill="#20dfff" d="m57 26 2 1Z"/><path fill="#19e5ff" d="m135 24 2 1Z"/><path fill="#20dfff" d="m88 24 2 1Z"/><path fill="#209fff" d="m60 24 2 1Z"/><path fill="#4ab4ff" d="m133 23 2 1Z"/><path fill="#194cff" d="m63 22 2 1Z"/><path fill="#19e5ff" d="m130 21 2 1Z"/><path fill="#2095df" d="m65 21 2 1Z"/><path fill="#2aaaff" d="m128 20 2 1Z"/><path fill="#19ccff" d="m68 19 2 1Z"/><path fill="#19a6ff" d="m125 18 2 1Z"/><path fill="#0af" d="m70 18 2 1Z"/><path fill="#209f9f" d="m123 17 2 1Z"/><path fill="#198cbf" d="m73 16 2 1Z"/><path fill="#19e5e5" d="m120 15 2 1Z"/><path fill="#209fbf" d="m75 15 2 1Z"/><path fill="#19e5ff" d="m117 13 2 1Z"/><path fill="#198ce5" d="m78 13 2 1Z"/><path fill="#20b4ff" d="m115 12 2 1Z"/><path fill="#1966ff" d="m81 11 2 1Z"/><path fill="#19e5ff" d="m112 10 2 1Z"/><path fill="#20b4ff" d="m83 10 2 1Z"/><path fill="#5af" d="m110 9 2 1Z"/><path fill="#19e5ff" d="m86 8 2 1Z"/><path fill="#19a6ff" d="m107 7 2 1Z"/><path fill="#2aaaff" d="m88 7 2 1Z"/><path fill="#2abfff" d="m105 6 2 1Z"/><path fill="#19e5ff" d="m91 5 2 1Z"/><path fill="#20dfff" d="m102 4 2 1ZM93 4l2 1Z"/><path fill="#2affff" d="m100 3 2 1Z"/><path fill="#20dfff" d="m95 3 2 1Z"/></svg>